<svg xmlns="http://www.w3.org/2000/svg" viewBox="0 0 260 258"><g fill="none" transform="translate(0 2.038)"><g stroke="#FFF" stroke-linecap="square" stroke-width="2"><path d="M152.566 153.582c26.471-11.282 49.462-29.107 68.973-53.475 19.51-24.367 31.332-52.084 35.464-83.15M152.545 154.123c8.022-.705 14.766-.277 20.233 1.285 5.466 1.562 9.347 3.98 11.643 7.256"/><path d="M153.298 153.382c4.792-7.581 7.722-13.362 8.788-17.343 1.067-3.982 1.696-8.635 1.886-13.961"/></g><path fill="#FFF" d="m24.868 158.52 3.32 10.22c.129.392.136.565.104.747a.909.909 0 0 1-.243.477c-.128.133-.273.229-.666.356l-.466.152c-.393.128-.566.135-.748.103a.909.909 0 0 1-.477-.243c-.133-.128-.229-.273-.356-.666l-3.32-10.219 2.852-.927Zm1-6.633 10.219-3.321c.393-.128.566-.135.748-.103a.909.909 0 0 1 .476.243c.133.128.23.273.357.666l.152.466c.127.393.135.566.102.748a.909.909 0 0 1-.243.477c-.128.133-.272.229-.665.356l-10.22 3.32-.926-2.852Zm-8.584 5.943-10.22 3.32c-.392.128-.566.136-.747.103a.909.909 0 0 1-.477-.243c-.133-.128-.229-.272-.356-.665l-.152-.467c-.128-.393-.135-.566-.103-.748a.909.909 0 0 1 .243-.476c.128-.133.273-.23.665-.357l10.22-3.32.927 2.853Zm-.407-19.846c.393-.127.566-.135.748-.102a.909.909 0 0 1 .476.243c.133.128.23.272.357.665l3.32 10.22-2.853.926-3.32-10.22c-.128-.392-.136-.565-.103-.747a.909.909 0 0 1 .243-.476c.128-.134.272-.23.665-.357l.467-.152Z"/><circle cx="152" cy="242.962" r="11.5" stroke="#FFF" stroke-width="3"/></g></svg>